Coordinates
version=1
nRows=18
nColumns=32
inDegrees=yes

Units are S.I. units (second, meters, Newtons, ...)
If the header above contains a line with 'inDegrees', this indicates whether rotational values are in degrees (yes) or radians (no).

endheader
time	pelvis_tilt	pelvis_list	pelvis_rotation	pelvis_tx	pelvis_ty	pelvis_tz	hip_flexion_r	hip_adduction_r	hip_rotation_r	knee_angle_r	knee_adduction_r	med_cond_adduction_r	lat_cond_adduction_r	patella_r_constrained_knee_angle	ankle_angle_r	subtalar_angle_r	mtp_angle_r	hip_flexion_l	hip_adduction_l	hip_rotation_l	knee_angle_l	knee_adduction_l	med_cond_adduction_l	lat_cond_adduction_l	patella_l_constrained_knee_angle	ankle_angle_l	subtalar_angle_l	mtp_angle_l	lumbar_extension	lumbar_bending	lumbar_rotation
      2.76000000	      5.37710883	      7.76999356	    -91.13913580	      0.27018097	      0.88815223	     -0.70182840	     10.40565832	     -8.76312844	    -37.39078972	    -20.63187431	     -0.00000000	      0.00000000	     -0.00000000	     -0.36009414	      5.14686317	     19.85903638	      0.00000000	     27.62009104	      7.28123348	     -2.38932740	    -29.26307006	      0.00000000	     -0.00000000	      0.00000000	     -0.51073692	     -7.14026077	    -13.37632930	      0.00000000	      0.00000000	      0.00000000	     -0.00000000
      2.76500000	      4.86576285	      7.63587418	    -91.23896529	      0.27023292	      0.88735081	     -0.69586731	      9.75680447	     -8.25125134	    -38.27547703	    -20.57415724	     -0.00000000	     -0.00000000	      0.00000000	     -0.35908678	      5.26497831	     19.86088055	      0.00000000	     27.92315868	      6.68299440	     -2.32958353	    -28.08954787	      0.00000000	      0.00000000	     -0.00000000	     -0.49025510	     -7.08434116	    -12.92492543	     -0.00000000	      0.00000000	      0.00000000	     -0.00000000
      2.77000000	      4.43345644	      7.73962352	    -91.50667548	      0.27025367	      0.88619396	     -0.68995170	      9.44765296	     -7.81290554	    -38.84072934	    -20.59171564	     -0.00000000	      0.00000000	     -0.00000000	     -0.35939324	      5.40910153	     19.86209179	      0.00000000	     28.45842761	      6.09888741	     -2.39860737	    -26.86916559	     -0.00000000	      0.00000000	     -0.00000000	     -0.46895541	     -7.09837154	    -12.50416683	      0.00000000	      0.00000000	      0.00000000	     -0.00000000
      2.77500000	      4.01863860	      7.83324259	    -91.87515892	      0.27010870	      0.88498539	     -0.68398920	      9.15807584	     -7.37014028	    -39.18168557	    -20.62247860	      0.00000000	     -0.00000000	      0.00000000	     -0.35993015	      5.58969491	     19.86303681	     -0.00000000	     28.96223054	      5.46574996	     -2.59769573	    -25.63646757	      0.00000000	      0.00000000	     -0.00000000	     -0.44744077	     -7.04303188	    -11.95507917	      0.00000000	      0.00000000	      0.00000000	     -0.00000000
      2.78000000	      3.49433598	      7.62179469	    -92.24758223	      0.26985985	      0.88406910	     -0.67809598	      8.53798186	     -6.80653249	    -39.42213422	    -20.63915421	      0.00000000	     -0.00000000	      0.00000000	     -0.36022120	      5.81774177	     19.86327423	      0.00000000	     29.14685656	      4.71046145	     -2.80344103	    -24.45520610	     -0.00000000	     -0.00000000	      0.00000000	     -0.42682387	     -6.87985736	    -11.36403120	     -0.00000000	      0.00000000	      0.00000000	     -0.00000000
      2.78500000	      3.04497743	      7.65950005	    -92.66978614	      0.26960019	      0.88280334	     -0.67218421	      8.21017447	     -6.32276705	    -39.54826512	    -20.69567465	     -0.00000000	     -0.00000000	      0.00000000	     -0.36120766	      6.02273664	     19.86368808	      0.00000000	     29.58330817	      3.99082683	     -3.11457516	    -23.26610425	     -0.00000000	      0.00000000	     -0.00000000	     -0.40607012	     -6.70608774	    -10.62723751	     -0.00000000	      0.00000000	      0.00000000	     -0.00000000
      2.79000000	      2.58484374	      7.70767443	    -93.09338381	      0.26933415	      0.88149336	     -0.66623548	      7.89024678	     -5.83118724	    -39.62610298	    -20.75472824	      0.00000000	     -0.00000000	      0.00000000	     -0.36223834	      6.24407065	     19.86390293	     -0.00000000	     30.01127814	      3.25495559	     -3.41381515	    -22.07608339	     -0.00000000	      0.00000000	     -0.00000000	     -0.38530034	     -6.52858681	     -9.88933909	      0.00000000	      0.00000000	      0.00000000	     -0.00000000
      2.79500000	      2.10465101	      7.74034121	    -93.50662436	      0.26905369	      0.88016062	     -0.66027006	      7.53984270	     -5.32085384	    -39.68449930	    -20.81217161	     -0.00000000	     -0.00000000	      0.00000000	     -0.36324092	      6.47483488	     19.86404632	     -0.00000000	     30.41488290	      2.49479028	     -3.74429736	    -20.90985844	      0.00000000	     -0.00000000	      0.00000000	     -0.36494588	     -6.29373612	     -9.10382292	     -0.00000000	     -0.00000000	      0.00000000	      0.00000000
      2.80000000	      1.63015551	      7.77569542	    -93.90490704	      0.26871021	      0.87878553	     -0.65426912	      7.18457565	     -4.81460113	    -39.72290219	    -20.86776132	      0.00000000	     -0.00000000	      0.00000000	     -0.36421114	      6.70448108	     19.86406587	     -0.00000000	     30.81640914	      1.72074474	     -4.14480473	    -19.77324089	      0.00000000	     -0.00000000	      0.00000000	     -0.34510816	     -5.96626111	     -8.05860144	     -0.00000000	     -0.00000000	      0.00000000	      0.00000000
      2.80500000	      1.15087514	      7.83237597	    -94.27350750	      0.26837753	      0.87735022	     -0.64826142	      6.84275550	     -4.30911892	    -39.75388160	    -20.92776440	      0.00000000	      0.00000000	     -0.00000000	     -0.36525839	      6.94343417	     19.86397700	      0.00000000	     31.23009646	      0.95719002	     -4.52883283	    -18.65710911	      0.00000000	     -0.00000000	      0.00000000	     -0.32562798	     -5.62773467	     -7.05785584	      0.00000000	     -0.00000000	      0.00000000	      0.00000000
      2.81000000	      0.66541840	      7.87794080	    -94.62517868	      0.26805212	      0.87590346	     -0.64226135	      6.48317105	     -3.80347999	    -39.77698786	    -20.98861741	     -0.00000000	     -0.00000000	      0.00000000	     -0.36632048	      7.18142982	     19.86381048	     -0.00000000	     31.63038411	      0.19187764	     -4.93910634	    -17.57260376	      0.00000000	      0.00000000	     -0.00000000	     -0.30669979	     -5.22906732	     -5.97921877	     -0.00000000	     -0.00000000	      0.00000000	      0.00000000
      2.81500000	      0.19208526	      7.93566473	    -94.95361826	      0.26769775	      0.87442268	     -0.63623106	      6.12907507	     -3.31354474	    -39.79541009	    -21.05859299	      0.00000000	      0.00000000	     -0.00000000	     -0.36754178	      7.42425942	     19.86349729	     -0.00000000	     32.03269600	     -0.55796919	     -5.36198573	    -16.51350729	     -0.00000000	     -0.00000000	      0.00000000	     -0.28821507	     -4.83527133	     -4.82841564	     -0.00000000	     -0.00000000	      0.00000000	      0.00000000
      2.82000000	     -0.28088639	      7.98262588	    -95.26053623	      0.26734770	      0.87293015	     -0.63018451	      5.75531556	     -2.82723652	    -39.80974884	    -21.12396001	      0.00000000	      0.00000000	     -0.00000000	     -0.36868265	      7.66365015	     19.86304900	      0.00000000	     32.41887212	     -1.29901725	     -5.81978829	    -15.49537269	      0.00000000	      0.00000000	     -0.00000000	     -0.27044527	     -4.37370247	     -3.59058692	      0.00000000	     -0.00000000	      0.00000000	      0.00000000
      2.82500000	     -0.74929842	      8.01529459	    -95.52557106	      0.26702359	      0.87143503	     -0.62412377	      5.36518753	     -2.35932873	    -39.82271976	    -21.21684103	      0.00000000	     -0.00000000	      0.00000000	     -0.37030373	      7.92777823	     19.86257854	      0.00000000	     32.79210043	     -2.01334227	     -6.29369639	    -14.52976685	      0.00000000	      0.00000000	     -0.00000000	     -0.25359227	     -3.87951715	     -2.29710650	     -0.00000000	     -0.00000000	      0.00000000	      0.00000000
      2.83000000	     -1.17641239	      8.05438128	    -95.79466153	      0.26670841	      0.86993628	     -0.61805199	      4.98502022	     -1.94332157	    -39.83244911	    -21.31012767	      0.00000000	      0.00000000	     -0.00000000	     -0.37193189	      8.15523071	     19.86196046	     -0.00000000	     33.14979388	     -2.68113382	     -6.79351915	    -13.57508465	     -0.00000000	      0.00000000	     -0.00000000	     -0.23692992	     -3.37886321	     -0.97318194	     -0.00000000	     -0.00000000	      0.00000000	      0.00000000
      2.83500000	     -1.66333367	      8.02877474	    -96.02573559	      0.26634428	      0.86847328	     -0.61194566	      4.51181169	     -1.45846915	    -39.84135976	    -21.38033777	     -0.00000000	      0.00000000	     -0.00000000	     -0.37315729	      8.44210388	     19.86096619	      0.00000000	     33.46201404	     -3.40184338	     -7.35185764	    -12.74866166	      0.00000000	     -0.00000000	      0.00000000	     -0.22250612	     -2.70773951	      0.50904527	      0.00000000	     -0.00000000	      0.00000000	      0.00000000
      2.84000000	     -1.99329851	      8.10535116	    -96.25442150	      0.26618831	      0.86696894	     -0.60587603	      4.19078908	     -1.16665513	    -39.84726041	    -21.51234238	      0.00000000	     -0.00000000	      0.00000000	     -0.37546120	      8.65116786	     19.86032559	     -0.00000000	     33.83690109	     -3.92481043	     -7.86389293	    -11.84204498	     -0.00000000	      0.00000000	     -0.00000000	     -0.20668268	     -2.44602075	      1.66955218	     -0.00000000	     -0.00000000	     -0.00000000	      0.00000000
      2.84500000	     -2.44121023	      7.90852931	    -96.45130949	      0.26579929	      0.86573876	     -0.59974233	      3.53990546	     -0.75564568	    -39.85370270	    -21.61451440	      0.00000000	     -0.00000000	      0.00000000	     -0.37724444	      8.85302730	     19.85909855	      0.00000000	     33.94332419	     -4.57848511	     -8.53650352	    -11.11142823	     -0.00000000	      0.00000000	     -0.00000000	     -0.19393101	     -1.72614504	      3.43388855	      0.00000000	     -0.00000000	     -0.00000000	      0.00000000
